<svg width="281" height="717" viewBox="0 0 281 717" fill="none" xmlns="http://www.w3.org/2000/svg">
<ellipse cx="139.5" cy="389" rx="95.5" ry="328" fill="#C4C4C4"/>
<ellipse cx="137.5" cy="129" rx="110.5" ry="87" fill="#C4C4C4"/>
<rect x="43" y="49" width="192" height="113" fill="#C4C4C4"/>
<path d="M40.2116 24.3317L107.651 57.1604L38.0021 99.3041L40.2116 24.3317Z" fill="#C4C4C4"/>
<path d="M240.66 25.1556L241.323 100.158L172.559 56.5869L240.66 25.1556Z" fill="#C4C4C4"/>
<circle cx="85.5" cy="127.5" r="12.5" fill="#3C3C3C"/>
<circle cx="191.5" cy="127.5" r="12.5" fill="#3C3C3C"/>
<path d="M109 156C112.943 166.565 124.263 181.355 138 156" stroke="black"/>
<path d="M138 156C141.943 166.565 153.263 181.355 167 156" stroke="black"/>
<g filter="url(#filter0_d_49:15)">
<ellipse cx="97.7301" cy="242.103" rx="23" ry="52.6268" transform="rotate(-17.4596 97.7301 242.103)" fill="#C4C4C4"/>
</g>
<g filter="url(#filter1_d_49:15)">
<ellipse cx="184.931" cy="243.688" rx="23" ry="52.5" transform="rotate(15.1622 184.931 243.688)" fill="#C4C4C4"/>
</g>
<path d="M141.04 156.446C139.443 158.313 136.557 158.313 134.96 156.446L126.325 146.35C124.105 143.754 125.949 139.75 129.364 139.75L146.636 139.75C150.051 139.75 151.895 143.754 149.675 146.35L141.04 156.446Z" fill="#696969"/>
<defs>
<filter id="filter0_d_49:15" x="60" y="185" width="75.4603" height="118.206" filterUnits="userSpaceOnUse" color-interpolation-filters="sRGB">
<feFlood flood-opacity="0" result="BackgroundImageFix"/>
<feColorMatrix in="SourceAlpha" type="matrix" values="0 0 0 0 0 0 0 0 0 0 0 0 0 0 0 0 0 0 127 0" result="hardAlpha"/>
<feOffset dy="4"/>
<feComposite in2="hardAlpha" operator="out"/>
<feColorMatrix type="matrix" values="0 0 0 0 0.235294 0 0 0 0 0.235294 0 0 0 0 0.235294 0 0 0 0.9 0"/>
<feBlend mode="normal" in2="BackgroundImageFix" result="effect1_dropShadow_49:15"/>
<feBlend mode="normal" in="SourceGraphic" in2="effect1_dropShadow_49:15" result="shape"/>
</filter>
<filter id="filter1_d_49:15" x="149" y="187" width="71.8617" height="117.376" filterUnits="userSpaceOnUse" color-interpolation-filters="sRGB">
<feFlood flood-opacity="0" result="BackgroundImageFix"/>
<feColorMatrix in="SourceAlpha" type="matrix" values="0 0 0 0 0 0 0 0 0 0 0 0 0 0 0 0 0 0 127 0" result="hardAlpha"/>
<feOffset dy="4"/>
<feComposite in2="hardAlpha" operator="out"/>
<feColorMatrix type="matrix" values="0 0 0 0 0.235294 0 0 0 0 0.235294 0 0 0 0 0.235294 0 0 0 0.9 0"/>
<feBlend mode="normal" in2="BackgroundImageFix" result="effect1_dropShadow_49:15"/>
<feBlend mode="normal" in="SourceGraphic" in2="effect1_dropShadow_49:15" result="shape"/>
</filter>
</defs>
</svg>
