<svg width="281" height="717" viewBox="0 0 281 717" fill="none" xmlns="http://www.w3.org/2000/svg">
<ellipse cx="139.5" cy="389" rx="95.5" ry="328" fill="white"/>
<ellipse cx="137.5" cy="129" rx="110.5" ry="87" fill="white"/>
<rect x="43" y="49" width="192" height="113" fill="white"/>
<path d="M40.2116 24.3317L107.651 57.1604L38.0021 99.3041L40.2116 24.3317Z" fill="white"/>
<path d="M240.66 25.1556L241.323 100.158L172.559 56.5869L240.66 25.1556Z" fill="white"/>
<circle cx="85.5" cy="127.5" r="12.5" fill="#82A7DF"/>
<circle cx="191.5" cy="127.5" r="12.5" fill="#82A7DF"/>
<path d="M109 156C112.943 166.565 124.263 181.355 138 156" stroke="#7C7C7C"/>
<path d="M138 156C141.943 166.565 153.263 181.355 167 156" stroke="#7C7C7C"/>
<path d="M141.04 156.446C139.443 158.313 136.557 158.313 134.96 156.446L126.325 146.35C124.105 143.754 125.949 139.75 129.364 139.75L146.636 139.75C150.051 139.75 151.895 143.754 149.675 146.35L141.04 156.446Z" fill="#CECECE"/>
</svg>
