<svg width="190" height="550" viewBox="0 0 190 550" fill="none" xmlns="http://www.w3.org/2000/svg">
<ellipse cx="96.7194" cy="282.741" rx="82.1041" ry="267.259" fill="#C7C7C7"/>
<path d="M142.531 209.731C144.086 208.937 145.875 208.88 147.672 209.47C148.145 208.218 148.888 207.102 149.849 206.251L148.356 203.329C147.988 202.608 147.973 201.744 148.314 200.927C148.655 200.11 149.324 199.407 150.175 198.973L153.381 197.336L154.769 200.055L151.563 201.692L153.055 204.614C154.307 204.335 155.647 204.387 156.939 204.739C157.514 202.937 158.61 201.521 160.165 200.727C164.173 198.681 169.711 201.611 172.585 207.239C175.458 212.867 174.584 219.071 170.576 221.118C169.021 221.912 167.231 221.969 165.434 221.378C164.746 223.237 163.49 224.736 161.759 225.62C160.027 226.504 158.077 226.642 156.168 226.109C155.592 227.911 154.497 229.328 152.942 230.121C148.934 232.168 143.395 229.237 140.522 223.61C137.649 217.982 138.523 211.777 142.531 209.731ZM149.315 213.122L148.872 217.204L152.88 215.157L149.315 213.122ZM158.933 208.211L158.491 212.293L162.499 210.246L158.933 208.211ZM152.57 223.456L155.776 221.819L156.685 219.641L158.983 220.182L162.189 218.545L163.098 216.367L165.395 216.908L165.717 211.602L160.409 215.375L159.892 218.004L157.594 217.463L154.388 219.1L153.479 221.278L151.182 220.737L147.282 221.015L152.57 223.456Z" fill="black"/>
<path d="M99.0056 217.405C99.0056 217.405 105.594 215.376 110.305 219.229C110.305 219.229 111.167 226.546 114.278 226.51L114.238 223.092C114.238 223.092 115.039 225.036 116.594 225.018C118.15 225 118.905 223.038 118.905 223.038L118.944 226.456C122.055 226.421 122.749 219.087 122.749 219.087C127.37 215.126 134.003 217.004 134.003 217.004C130.915 218.993 130.604 225.834 130.604 225.834C124.383 225.906 124.455 232.254 124.455 232.254C116.656 230.39 116.74 237.715 116.74 237.715C116.74 237.715 116.656 230.39 108.901 232.432C108.901 232.432 108.828 226.084 102.606 226.155C102.606 226.155 102.139 219.323 99.0056 217.405Z" fill="black"/>
<path d="M23.5666 201.26C23.5666 201.26 30.3444 202.519 32.7305 208.118C32.7305 208.118 30.0999 214.999 32.8724 216.41L34.4234 213.364C34.4234 213.364 34.2302 215.458 35.6164 216.163C37.0027 216.869 38.5821 215.481 38.5821 215.481L37.0311 218.528C39.8035 219.939 43.8203 213.764 43.8203 213.764C49.7517 212.399 54.7568 217.14 54.7568 217.14C51.098 217.469 47.6494 223.386 47.6494 223.386C42.1044 220.563 39.2239 226.22 39.2239 226.22C33.1791 220.951 29.8554 227.479 29.8554 227.479C29.8554 227.479 33.1791 220.951 25.3616 219.163C25.3616 219.163 28.2421 213.505 22.6972 210.682C22.6972 210.682 25.4528 204.412 23.5666 201.26Z" fill="black"/>
<path d="M68.1695 215.388C69.9154 215.368 71.544 216.113 72.8913 217.441C73.8709 216.529 75.0333 215.859 76.2716 215.524L76.2339 212.243C76.2247 211.433 76.595 210.653 77.2635 210.073C77.9321 209.492 78.844 209.16 79.7987 209.149L83.3985 209.108L83.4335 212.16L79.8337 212.202L79.8713 215.483C81.1169 215.789 82.2944 216.432 83.2947 217.321C84.6112 215.963 86.2223 215.181 87.9682 215.161C92.4679 215.11 96.1265 220.196 96.199 226.515C96.2714 232.833 92.7305 238.003 88.2308 238.054C86.4849 238.075 84.8563 237.33 83.5089 236.002C82.0664 237.362 80.2753 238.146 78.3314 238.168C76.3876 238.19 74.5789 237.448 73.1056 236.122C71.7891 237.48 70.178 238.262 68.4321 238.282C63.9324 238.333 60.2738 233.246 60.2013 226.928C60.1288 220.609 63.6698 215.44 68.1695 215.388ZM72.7392 221.442L70.5288 224.901L75.0285 224.85L72.7392 221.442ZM83.5385 221.318L81.3281 224.778L85.8278 224.726L83.5385 221.318ZM71.0619 232.146L74.6617 232.104L76.444 230.558L78.2614 232.063L81.8612 232.022L83.6436 230.475L85.4609 231.981L88.1082 227.371L81.6755 228.391L80.0438 230.516L78.2264 229.011L74.6266 229.052L72.8443 230.599L71.0269 229.093L67.4096 227.608L71.0619 232.146Z" fill="black"/>
<ellipse cx="95" cy="70.8889" rx="95" ry="70.8889" fill="#C7C7C7"/>
<rect x="13.7556" y="5.7037" width="165.068" height="92.0741" fill="#C7C7C7"/>
<path d="M136.343 109.89C110.939 129.68 71.1239 113.946 52.4107 104.636C50.7095 104.104 41.5426 107.23 44.945 109.89C48.3474 112.55 79.8196 135.159 105.054 133.829C125.242 132.765 141.541 121.15 149.102 114.146C155.434 104.481 161.748 90.1 136.343 109.89Z" fill="black" stroke="black" stroke-width="4"/>
<path d="M77.3918 119.729C76.6217 121.061 74.6989 121.061 73.9288 119.729L69.7833 112.558C69.0125 111.225 69.9746 109.557 71.5148 109.557L79.8058 109.557C81.3459 109.557 82.3081 111.225 81.5373 112.558L77.3918 119.729Z" fill="#C7C7C7"/>
<path d="M128.104 120.044C127.319 121.287 125.506 121.287 124.722 120.044L118.527 110.23C117.687 108.899 118.644 107.163 120.218 107.163L132.607 107.163C134.182 107.163 135.139 108.899 134.298 110.23L128.104 120.044Z" fill="#C7C7C7"/>
<ellipse cx="131.522" cy="62.7474" rx="16.4449" ry="14.8956" fill="black"/>
<path d="M132.758 62.6165C132.445 62.3211 132.073 62.0866 131.663 61.9265C131.254 61.7663 130.815 61.6837 130.371 61.6834C129.531 61.6835 128.723 61.9793 128.105 62.5122C127.487 61.9792 126.678 61.6834 125.839 61.6834C125.394 61.6838 124.955 61.7667 124.545 61.9272C124.135 62.0877 123.763 62.3227 123.45 62.6186C122.115 63.8757 122.116 65.8419 123.451 67.0937L128.105 71.4597L132.759 67.0937C134.094 65.8419 134.094 63.8757 132.758 62.6165V62.6165Z" fill="#F24E1E"/>
<ellipse cx="59.7886" cy="58.4915" rx="36.5758" ry="34.047" fill="black"/>
<path d="M88.5326 54.9996C87.8585 54.4209 87.0569 53.9615 86.1739 53.6478C85.2908 53.3341 84.3437 53.1723 83.3871 53.1716C81.5775 53.1719 79.8341 53.7514 78.5019 54.7953C77.1699 53.7512 75.4264 53.1717 73.6168 53.1716C72.659 53.1725 71.7109 53.3348 70.8269 53.6492C69.943 53.9636 69.1408 54.424 68.4664 55.0037C65.5898 57.4663 65.591 61.3181 68.4688 63.7702L78.5019 72.3231L88.5351 63.7702C91.4128 61.3181 91.4141 57.4663 88.5326 54.9996V54.9996Z" fill="#F24E1E"/>
</svg>
