<svg width="285" height="717" viewBox="0 0 285 717" fill="none" xmlns="http://www.w3.org/2000/svg">
<ellipse cx="145.5" cy="382.218" rx="95.5" ry="328" fill="black"/>
<path d="M224 120.718C224 170.7 188.854 211.218 145.5 211.218C102.146 211.218 67 170.7 67 120.718C67 70.7366 75 38.7183 141 35.2183C207 31.7183 224 70.7366 224 120.718Z" fill="black"/>
<rect x="181.881" y="57.6532" width="44.4679" height="93.1695" rx="22.2339" transform="rotate(-27.1827 181.881 57.6532)" fill="black"/>
<rect x="181.881" y="57.6532" width="44.4679" height="93.1695" rx="22.2339" transform="rotate(-27.1827 181.881 57.6532)" fill="black"/>
<rect x="68.0491" y="38.2184" width="44.4679" height="93.1695" rx="22.2339" transform="rotate(32.4921 68.0491 38.2184)" fill="black"/>
<circle cx="177.5" cy="100.718" r="12.5" fill="#6F9441"/>
<ellipse cx="177.115" cy="100.218" rx="10.1145" ry="9" fill="#0B0B0B"/>
<circle cx="106.5" cy="100.718" r="12.5" fill="#6F9441"/>
<ellipse cx="106.115" cy="100.218" rx="10.1145" ry="9" fill="#0B0B0B"/>
<path d="M117 146.218C120.399 154.519 130.158 166.14 142 146.218" stroke="#3C3C3C"/>
<path d="M142 146.218C145.399 154.519 155.158 166.14 167 146.218" stroke="#3C3C3C"/>
<path d="M145.04 142.664C143.443 144.531 140.557 144.531 138.96 142.664L130.325 132.568C128.105 129.973 129.949 125.968 133.364 125.968L150.636 125.968C154.051 125.968 155.895 129.973 153.675 132.568L145.04 142.664Z" fill="#353535"/>
</svg>
