<svg width="220" height="602" viewBox="0 0 220 602" fill="none" xmlns="http://www.w3.org/2000/svg">
<ellipse cx="111.544" cy="329.353" rx="73.7193" ry="272.647" fill="white"/>
<path d="M181.018 111.715C181.018 153.262 143.467 175.54 110 175.54C76.5335 175.54 42.0702 153.262 42.0702 111.715C42.0702 70.1686 55.9649 43.5537 106.912 40.6443C157.86 37.735 181.018 70.1686 181.018 111.715Z" fill="white"/>
<rect width="34.893" height="60.7722" rx="17.4465" transform="matrix(0.875103 -0.483937 0.430459 0.90261 143.487 59.5611)" fill="white"/>
<rect width="35.1075" height="64.8988" rx="17.5538" transform="matrix(0.824692 0.565582 -0.509064 0.860729 52.3359 40.7308)" fill="#FAFAFA"/>
<ellipse cx="136.246" cy="95.3586" rx="9.64912" ry="10.3905" fill="black"/>
<ellipse cx="135.948" cy="94.943" rx="7.80769" ry="7.48117" fill="black"/>
<ellipse cx="81.4386" cy="95.3586" rx="9.64912" ry="10.3905" fill="black"/>
<ellipse cx="81.141" cy="94.943" rx="7.80769" ry="7.48117" fill="black"/>
<path d="M94.7391 130.637C96.9197 134.235 102.902 139.099 109.384 129.772" stroke="#3C3C3C"/>
<path d="M109.384 129.772C111.565 133.369 117.547 138.233 124.03 128.906" stroke="#3C3C3C"/>
<path d="M114.08 127.089C111.295 130.231 106.389 130.231 103.604 127.089L102.953 126.355C98.9492 121.838 102.156 114.711 108.191 114.711L109.493 114.711C115.529 114.711 118.735 121.838 114.732 126.355L114.08 127.089Z" fill="black"/>
</svg>
